<?xml version="1.0" encoding="iso-8859-1"?>
<!-- Uploaded to: SVG Repo, www.svgrepo.com, Generator: SVG Repo Mixer Tools -->
<svg fill="#000000" height="800px" width="800px" version="1.1" id="Layer_1" xmlns="http://www.w3.org/2000/svg" xmlns:xlink="http://www.w3.org/1999/xlink" 
	 viewBox="0 0 511.999 511.999" xml:space="preserve">
<g>
	<g>
		<path d="M491.901,21.791L124.166,67.758c-16.721,2.09-30.134,13.969-34.783,29.43C38.832,104.969,0,148.763,0,201.456
			c0,52.694,38.831,96.486,89.38,104.268c4.647,15.464,18.059,27.345,34.78,29.438l25.309,3.163l37.367,138.794
			c2.102,7.808,9.181,13.233,17.266,13.233h113.521c11.76,0,20.322-11.177,17.266-22.529l-29.617-110.025l186.625,23.33
			c10.618,1.335,20.1-6.95,20.1-17.743V39.534C512,28.797,502.566,20.441,491.901,21.791z M87.616,268.378
			c-68.866-18.284-68.878-116.536,0-134.824V268.378z M217.509,454.589L217.509,454.589l-30-111.428l79.152,9.888l27.333,101.54
			H217.509z M397.559,332.805l-268.96-33.618c-6.024-0.755-5.22-6.987-5.22-10.604V113.349c0-3.376-0.924-9.828,5.221-10.596
			l268.959-33.618V332.805z M476.237,342.638l-42.915-5.364V64.664l42.915-5.364V342.638z"/>
	</g>
</g>
</svg>